<svg xmlns="http://www.w3.org/2000/svg" width="40" height="40"><g data-name="google plus" transform="translate(-244 -6068)"><circle data-name="ellipse 3" cx="20" cy="20" r="20" transform="translate(244 6068)" fill="#fff"/><path data-name="google plus" d="M253 6096c0-2.323 2.8-4.562 6.315-4.562.383 0 .733-.017 1.1-.017a2.471 2.471 0 01-.862-1.757 2.663 2.663 0 01.321-1.2c-.191.015-.387-.017-.588-.017a4.63 4.63 0 01-4.821-4.669c0-2.491 2.671-4.784 5.51-4.784h6.325l-1.416 1.5h-2.007a3.92 3.92 0 012.111 3.559 4.149 4.149 0 01-1.859 3.21c-1.021.8-1.216 1.131-1.216 1.81 0 .579 1.095 1.564 1.667 1.97a4.37 4.37 0 012.166 4.112c0 2.287-2.166 4.841-6.174 4.841-3.512.004-6.572-1.708-6.572-3.996zm2.377-.678c0 1.848 1.756 3.2 4.185 3.2 3.414 0 4.6-1.257 4.6-3.1a2.9 2.9 0 00-.077-.654c-.268-1.045-1.214-1.563-2.532-2.48a5.308 5.308 0 00-1.575-.254h-.058c-2.401-.001-4.543 1.496-4.543 3.292zm1.361-11.416c.282 2.142 1.831 3.919 3.463 3.966s2.794-1.647 2.512-3.791-1.9-3.859-3.533-3.907h-.071c-1.591.004-2.649 1.626-2.371 3.736zM271.75 6088v-3.726H268v-1.523h3.749v-3.726h1.5v3.726H277v1.523h-3.75V6088z"/></g></svg>