<svg xmlns="http://www.w3.org/2000/svg" width="40" height="40"><g data-name="google plus" transform="translate(-305 -839)"><circle cx="20" cy="20" r="20" transform="translate(305 839)" fill="#ffe1bd"/><path data-name="google plus" d="M314 867c0-2.321 2.8-4.562 6.314-4.562.383 0 .733-.015 1.1-.015a2.476 2.476 0 01-.861-1.758 2.668 2.668 0 01.32-1.2c-.191.013-.386-.018-.587-.018a4.63 4.63 0 01-4.821-4.669c0-2.491 2.671-4.784 5.509-4.784h6.33l-1.417 1.5h-2.006a3.924 3.924 0 012.111 3.56 4.15 4.15 0 01-1.859 3.21c-1.021.8-1.215 1.132-1.215 1.81 0 .58 1.094 1.564 1.667 1.969a4.372 4.372 0 012.166 4.113c0 2.287-2.166 4.841-6.174 4.841C317.059 871 314 869.289 314 867zm2.377-.678c0 1.848 1.755 3.2 4.185 3.2 3.415 0 4.606-1.256 4.606-3.1a2.819 2.819 0 00-.078-.652c-.267-1.046-1.212-1.563-2.532-2.48a5.311 5.311 0 00-1.575-.254h-.06c-2.405-.003-4.546 1.495-4.546 3.29zm1.361-11.415c.282 2.141 1.832 3.918 3.462 3.965s2.794-1.647 2.514-3.789-1.9-3.86-3.533-3.909h-.07c-1.593.004-2.651 1.626-2.373 3.737zM332.75 859v-3.726H329v-1.524h3.75v-3.726h1.5v3.726H338v1.524h-3.75V859z"/></g></svg>