<svg xmlns="http://www.w3.org/2000/svg" width="40" height="40"><g transform="translate(-364 -6068)"><circle data-name="ellipse 5" cx="20" cy="20" r="20" transform="translate(364 6068)" fill="#fff"/><path data-name="Instagram" d="M391.5 6099.75h-15a4.5 4.5 0 01-4.5-4.5v-15a4.509 4.509 0 011.5-3.351v18.35a3 3 0 003 3h15a3 3 0 003-3v-12h-6.351a6.118 6.118 0 00-8.3 0H378v-7.5h13.5a4.505 4.505 0 014.5 4.5v15a4.5 4.5 0 01-4.5 4.501zm-.75-21.75a1.5 1.5 0 00-1.5 1.5v.75a1.5 1.5 0 001.5 1.5h1.5a1.5 1.5 0 001.5-1.5v-.75a1.5 1.5 0 00-1.5-1.5zm-6.75 15.071a4.57 4.57 0 114.571-4.571 4.575 4.575 0 01-4.571 4.571zm0-7.62a3.05 3.05 0 103.051 3.049 3.053 3.053 0 00-3.051-3.049zm-7.5-2.2H375v-7.244a4.475 4.475 0 011.5-.257v7.5z"/></g></svg>