<svg xmlns="http://www.w3.org/2000/svg" width="40" height="40"><g transform="translate(-425 -839)"><circle cx="20" cy="20" r="20" transform="translate(425 839)" fill="#ffe1bd"/><path data-name="Instagram" d="M452.5 870.75h-15a4.505 4.505 0 01-4.5-4.5v-15a4.507 4.507 0 011.5-3.352v18.352a3 3 0 003 3h15a3 3 0 003-3v-12h-6.352a6.121 6.121 0 00-8.3 0H439v-7.5h13.5a4.505 4.505 0 014.5 4.5v15a4.505 4.505 0 01-4.5 4.5zm-.75-21.75a1.5 1.5 0 00-1.5 1.5v.75a1.5 1.5 0 001.5 1.5h1.5a1.5 1.5 0 001.5-1.5v-.75a1.5 1.5 0 00-1.5-1.5zM445 864.07a4.57 4.57 0 114.57-4.57 4.575 4.575 0 01-4.57 4.57zm0-7.62a3.05 3.05 0 103.05 3.05 3.053 3.053 0 00-3.05-3.05zm-7.5-2.2H436v-7.243a4.475 4.475 0 011.5-.257v7.5z"/></g></svg>