<svg xmlns="http://www.w3.org/2000/svg" width="40" height="40"><g transform="translate(-365 -839)"><circle cx="20" cy="20" r="20" transform="translate(365 839)" fill="#ffe1bd"/><path data-name="pinterest" d="M385 846.969a12 12 0 00-4.751 23.024 10.664 10.664 0 01.211-2.738c.233-.976 1.551-6.562 1.551-6.562a4.631 4.631 0 01-.385-1.907c0-1.783 1.036-3.117 2.323-3.117a1.615 1.615 0 011.625 1.81 25.8 25.8 0 01-1.065 4.272 1.867 1.867 0 001.9 2.32c2.28 0 3.816-2.93 3.816-6.4 0-2.638-1.775-4.615-5.01-4.615a5.705 5.705 0 00-5.93 5.768 3.472 3.472 0 00.8 2.362.583.583 0 01.171.672c-.059.22-.188.754-.244.967a.415.415 0 01-.6.3c-1.682-.686-2.467-2.529-2.467-4.6 0-3.422 2.886-7.524 8.607-7.524 4.6 0 7.625 3.328 7.625 6.9 0 4.727-2.627 8.255-6.5 8.255a3.451 3.451 0 01-2.941-1.5s-.7 2.772-.848 3.31a10.094 10.094 0 01-1.191 2.549A12 12 0 10385 846.969z"/></g></svg>