<svg xmlns="http://www.w3.org/2000/svg" width="40" height="40"><g transform="translate(-304 -6068)"><circle data-name="ellipse 4" cx="20" cy="20" r="20" transform="translate(304 6068)" fill="#fff"/><path data-name="pinterest" d="M324 6075.969a12 12 0 00-4.751 23.023 10.665 10.665 0 01.211-2.738c.233-.976 1.551-6.562 1.551-6.562a4.63 4.63 0 01-.385-1.907c0-1.783 1.036-3.117 2.323-3.117a1.614 1.614 0 011.625 1.81 25.787 25.787 0 01-1.065 4.272 1.867 1.867 0 001.9 2.32c2.28 0 3.816-2.931 3.816-6.4 0-2.638-1.775-4.615-5.01-4.615a5.705 5.705 0 00-5.93 5.769 3.473 3.473 0 00.8 2.362.583.583 0 01.171.672c-.059.22-.188.754-.244.967a.415.415 0 01-.6.3c-1.682-.686-2.467-2.529-2.467-4.6 0-3.422 2.886-7.524 8.607-7.524 4.6 0 7.625 3.329 7.625 6.9 0 4.727-2.627 8.255-6.5 8.255a3.451 3.451 0 01-2.941-1.5s-.7 2.772-.848 3.31a10.089 10.089 0 01-1.191 2.549 12 12 0 103.303-23.546z"/></g></svg>