<svg xmlns="http://www.w3.org/2000/svg" width="40" height="40"><g transform="translate(-245 -839)"><circle cx="20" cy="20" r="20" transform="translate(245 839)" fill="#ffe1bd"/><path data-name="twitter" d="M277 852.4a8.511 8.511 0 01-2.746.8 5.378 5.378 0 002.063-2.758 7.874 7.874 0 01-3.088 1.124A4.881 4.881 0 00269.65 850a5.017 5.017 0 00-4.951 5.078 5.2 5.2 0 00.125 1.134 13.6 13.6 0 01-10.207-5.27 5.159 5.159 0 001.5 6.71 3.122 3.122 0 01-2.162-.575 4.879 4.879 0 003.82 4.964 3.827 3.827 0 01-2.062.161c.157 1.493 2.2 3.446 4.426 3.446a8.664 8.664 0 01-7.14 2.109 14.6 14.6 0 007.746 2.243 13.953 13.953 0 0013.855-14.831v-.166a8.669 8.669 0 002.4-2.603z"/></g></svg>