<svg xmlns="http://www.w3.org/2000/svg" width="40" height="40"><g transform="translate(-184 -6068)"><circle data-name="ellipse 2" cx="20" cy="20" r="20" transform="translate(184 6068)" fill="#fff"/><path data-name="twitter" d="M216 6081.4a8.521 8.521 0 01-2.746.8 5.378 5.378 0 002.063-2.758 7.868 7.868 0 01-3.088 1.124 4.881 4.881 0 00-3.579-1.57 5.017 5.017 0 00-4.951 5.078 5.2 5.2 0 00.125 1.134 13.6 13.6 0 01-10.207-5.27 5.159 5.159 0 001.5 6.71 3.121 3.121 0 01-2.162-.575 4.879 4.879 0 003.82 4.963 3.824 3.824 0 01-2.062.161c.157 1.494 2.2 3.446 4.426 3.446a8.665 8.665 0 01-7.14 2.109 14.6 14.6 0 007.745 2.245 13.953 13.953 0 0013.857-14.831V6084a8.669 8.669 0 002.399-2.6z"/></g></svg>